<?xml version="1.0" encoding="UTF-8"?><svg id="Layer_1" xmlns="http://www.w3.org/2000/svg" xmlns:xlink="http://www.w3.org/1999/xlink" viewBox="0 0 536.61 547.49"><defs><style>.cls-1{fill:#fff;}.cls-2{fill:#061838;}.cls-2,.cls-3,.cls-4,.cls-5,.cls-6,.cls-7,.cls-8{fill-rule:evenodd;}.cls-3{fill:#007cc3;}.cls-9{clip-path:url(#clippath-2);}.cls-4{fill:#963596;}.cls-10{clip-path:url(#clippath-1);}.cls-11{clip-path:url(#clippath-4);}.cls-5{fill:#f16c51;}.cls-6{fill:#00b28f;}.cls-12{clip-rule:evenodd;}.cls-12,.cls-7,.cls-13{fill:none;}.cls-14{clip-path:url(#clippath-3);}.cls-15{clip-path:url(#clippath-5);}</style><clipPath id="clippath-1"><polygon class="cls-12" points="-21.79 544.38 575.4 544.38 575.4 2.08 -21.79 2.08 -21.79 544.38 -21.79 544.38"/></clipPath><clipPath id="clippath-2"><polygon class="cls-12" points="-21.79 544.38 575.4 544.38 575.4 2.08 -21.79 2.08 -21.79 544.38 -21.79 544.38"/></clipPath><clipPath id="clippath-3"><rect class="cls-13" x="-21.79" y="2.08" width="597.2" height="542.3"/></clipPath><clipPath id="clippath-4"><polygon class="cls-12" points="-21.79 544.38 575.4 544.38 575.4 2.08 -21.79 2.08 -21.79 544.38 -21.79 544.38"/></clipPath><clipPath id="clippath-5"><rect class="cls-13" x="-21.79" y="2.08" width="597.2" height="542.3"/></clipPath></defs><polygon class="cls-8" points="212.87 9.57 224.07 7.19 224.79 10.55 217.7 12.05 218.51 15.83 225.19 14.41 225.9 17.75 219.22 19.17 220.13 23.48 227.59 21.89 228.31 25.26 216.73 27.72 212.87 9.57 212.87 9.57"/><path class="cls-8" d="m226.4,6.7l4.55-.67,3.37,7.44c.47,1.04.93,2.08,1.36,3.11.44,1.04.85,2.11,1.23,3.22h.08c.07-1.15.17-2.28.29-3.41.12-1.13.26-2.24.42-3.33l1.19-8.19,4.41-.65-3.5,19.27-4.85.71-8.57-17.5h0Z"/><path class="cls-8" d="m253.83,6.37c-1.42.15-2.47.84-3.16,2.06s-.96,2.75-.82,4.59c.16,1.84.68,3.29,1.56,4.35s2.02,1.55,3.44,1.47c1.42-.15,2.47-.84,3.14-2.06.67-1.22.94-2.75.8-4.59-.09-1.12-.35-2.13-.77-3.04-.42-.9-.98-1.61-1.69-2.12-.71-.51-1.55-.73-2.51-.67h0Zm-.16-3.33c1.9-.13,3.53.17,4.91.91,1.37.74,2.45,1.78,3.24,3.13.79,1.35,1.25,2.89,1.39,4.61.2,3.06-.44,5.51-1.94,7.35-1.5,1.84-3.62,2.88-6.36,3.12-1.84.13-3.44-.17-4.8-.89-1.36-.72-2.44-1.76-3.24-3.12-.8-1.36-1.27-2.93-1.42-4.7-.14-1.87.1-3.56.72-5.07.62-1.51,1.57-2.74,2.85-3.68,1.28-.94,2.83-1.5,4.66-1.66h0Z"/><polygon class="cls-8" points="265.72 2.59 269.93 2.48 270.34 17.51 277.71 17.3 277.81 20.83 266.22 21.14 265.72 2.59 265.72 2.59"/><path class="cls-8" d="m276.72,2.25l4.6.09,2.1,7.89c.3,1.1.57,2.2.83,3.29.26,1.09.49,2.22.69,3.37h.08c.26-1.11.54-2.21.84-3.3s.63-2.16.97-3.22l2.53-7.88,4.46.09-6.62,18.43-4.9-.1-5.57-18.67h0Z"/><polygon class="cls-8" points="296.04 2.81 300.25 3.07 299.11 21.59 294.91 21.33 296.04 2.81 296.04 2.81"/><path class="cls-8" d="m304.3,3.27l4.87.52,3.11,7.17c.45,1.04.87,2.14,1.28,3.28.4,1.15.76,2.27,1.06,3.36h.08c0-1.22.04-2.47.12-3.74s.2-2.6.35-3.98l.58-5.39,3.83.41-1.98,18.45-4.38-.47-3.18-7.54c-.45-1.06-.89-2.18-1.33-3.37-.44-1.19-.83-2.35-1.17-3.49l-.08.02c-.08,1.22-.17,2.49-.29,3.82s-.25,2.74-.41,4.24l-.6,5.56-3.83-.41,1.98-18.45h0Z"/><path class="cls-8" d="m333.32,7.01c1.19.22,2.2.5,3.03.84.84.33,1.46.66,1.88.96l-1.46,3.15c-.45-.31-1-.6-1.65-.87-.65-.27-1.47-.5-2.46-.68-1.76-.32-3.28-.08-4.58.7-1.29.78-2.14,2.16-2.53,4.13-.31,1.9-.04,3.47.81,4.7.85,1.23,2.14,2,3.86,2.33.48.08.9.13,1.26.15.36.01.64,0,.82-.06l.68-3.83-2.82-.5.58-3.22,6.8,1.22-1.72,9.62c-.7.11-1.62.18-2.74.21-1.13.02-2.31-.07-3.54-.27-1.66-.3-3.07-.76-4.22-1.4-1.15-.63-2.07-1.43-2.76-2.39-.7-.95-1.17-2.03-1.41-3.25-.24-1.22-.23-2.5.02-3.85.39-2.03,1.16-3.67,2.31-4.92s2.57-2.12,4.27-2.58c1.69-.46,3.55-.52,5.56-.16h0Z"/><path class="cls-8" d="m196.77,515.45c-.4-.15-.74-.26-1.02-.33-.28-.07-.5-.11-.66-.13l-1.94,5.13c.15.1.33.2.54.3.21.1.45.2.74.3,1.06.39,1.97.45,2.75.18s1.34-.85,1.69-1.74c.3-.81.27-1.53-.09-2.18-.36-.64-1.03-1.16-2.01-1.53h0Zm.91-3.04c1.21.46,2.21.97,3,1.53s1.38,1.19,1.78,1.87c.39.66.63,1.39.7,2.21.07.81-.05,1.65-.37,2.51-.33.85-.76,1.58-1.29,2.18s-1.16,1.04-1.86,1.34c-.91.37-1.91.52-2.98.46s-2.19-.32-3.36-.77c-.26-.1-.5-.2-.72-.29-.22-.1-.42-.2-.59-.29l-2.35,6.21-3.89-1.47,6.48-17.12c.64.12,1.41.31,2.3.58.9.26,1.94.62,3.14,1.07h0Z"/><polygon class="cls-8" points="206.18 515.61 217.2 518.71 216.27 522.02 209.3 520.06 208.26 523.78 214.83 525.62 213.91 528.91 207.34 527.06 206.14 531.31 213.49 533.37 212.56 536.68 201.16 533.48 206.18 515.61 206.18 515.61"/><path class="cls-8" d="m224.73,523.37c-.5-.1-.9-.16-1.2-.2-.31-.03-.54-.05-.69-.05l-1.03,5.02,1.62.33c1.04.2,1.89.13,2.55-.22s1.08-.93,1.25-1.73c.16-.84.02-1.52-.42-2.05-.44-.53-1.14-.9-2.09-1.11h0Zm.16-3.14c1.35.27,2.48.62,3.4,1.04.92.42,1.65.95,2.19,1.59.45.54.76,1.16.91,1.85.16.69.15,1.46-.02,2.29-.27,1.16-.81,2.06-1.61,2.69s-1.64,1.01-2.51,1.13l-.02.08c.57.39.99.91,1.26,1.57.27.66.42,1.43.47,2.32.07,1.13.13,2.2.2,3.24.06,1.03.14,1.76.24,2.19l-4.21-.86c-.1-.29-.18-.82-.24-1.58-.07-.76-.12-1.73-.16-2.91,0-1.16-.19-1.99-.56-2.51s-.96-.85-1.79-1.01l-1.24-.25-1.46,7.15-4.07-.83,3.67-17.94c.69.03,1.51.1,2.47.22.95.12,1.98.29,3.08.52h0Z"/><path class="cls-8" d="m241.1,522.84c1.03.15,1.92.37,2.67.66.75.29,1.38.59,1.89.92l-1.4,3.22c-.34-.24-.82-.5-1.44-.78-.62-.28-1.38-.49-2.28-.63-.9-.11-1.6-.03-2.09.25s-.77.66-.84,1.15c-.09.56.12,1.07.62,1.51.5.44,1.31.96,2.43,1.56,1.53.82,2.63,1.73,3.29,2.72.66,1,.9,2.14.71,3.43-.22,1.59-1.01,2.84-2.38,3.75-1.37.91-3.32,1.22-5.84.91-1.07-.16-2.05-.42-2.95-.76-.9-.35-1.6-.71-2.1-1.08l1.33-3.32c.53.38,1.18.74,1.95,1.08s1.6.58,2.5.72c.96.13,1.71.05,2.25-.24s.86-.73.95-1.34c.09-.56-.08-1.07-.51-1.53-.43-.46-1.17-.96-2.21-1.5-1.47-.74-2.6-1.62-3.37-2.62s-1.08-2.18-.91-3.51c.24-1.6,1.04-2.83,2.4-3.68,1.36-.86,3.13-1.15,5.33-.88h0Z"/><path class="cls-8" d="m256.26,527.8c-1.43-.07-2.57.44-3.44,1.54s-1.37,2.57-1.53,4.4c-.13,1.84.16,3.36.86,4.54s1.76,1.85,3.17,1.99c1.43.07,2.57-.44,3.42-1.54s1.36-2.57,1.51-4.4c.08-1.12,0-2.16-.28-3.12s-.72-1.74-1.34-2.35c-.62-.61-1.41-.96-2.38-1.05h0Zm.37-3.31c1.9.17,3.46.72,4.7,1.66,1.24.94,2.14,2.14,2.71,3.6.56,1.46.78,3.05.65,4.78-.28,3.06-1.3,5.38-3.07,6.95-1.77,1.58-4.03,2.27-6.77,2.09-1.83-.16-3.37-.7-4.6-1.63s-2.13-2.13-2.71-3.59c-.58-1.47-.8-3.09-.67-4.86.15-1.87.66-3.5,1.51-4.89s1.98-2.46,3.39-3.19,3.03-1.04,4.86-.91h0Z"/><path class="cls-8" d="m267.34,525.52l4.9.06,3.77,6.85c.54,1,1.07,2.05,1.58,3.15.51,1.1.96,2.19,1.37,3.25h.08c-.12-1.22-.2-2.47-.23-3.75-.04-1.28-.04-2.61-.02-3.99l.07-5.42,3.85.05-.24,18.56-4.4-.06-3.87-7.21c-.55-1.01-1.09-2.09-1.64-3.23s-1.05-2.26-1.5-3.37l-.08.03c.04,1.22.06,2.5.07,3.83.01,1.33,0,2.76-.01,4.26l-.07,5.59-3.85-.05.24-18.56h0Z"/><path class="cls-8" d="m292.39,528.47c-.11.57-.22,1.18-.33,1.82-.11.64-.23,1.24-.35,1.8l-.91,3.99,4.1-.19-1.34-3.88c-.19-.55-.38-1.14-.57-1.77-.19-.62-.37-1.21-.53-1.77h-.05Zm-2.71-3.01l5.5-.26,6.62,18.26-4.51.21-1.66-4.69-5.31.25-1.1,4.82-4.35.21,4.79-18.8h0Z"/><polygon class="cls-8" points="302.6 524.72 306.79 524.29 308.33 539.24 315.67 538.49 316.03 541.99 304.51 543.18 302.6 524.72 302.6 524.72"/><polygon class="cls-8" points="316.12 523.21 320.28 522.61 322.93 540.97 318.77 541.58 316.12 523.21 316.12 523.21"/><polygon class="cls-8" points="322.97 522.27 336.18 519.72 336.64 522.1 330.53 536.07 330.55 536.18 339.18 534.52 339.83 537.92 325.67 540.65 325.24 538.44 331.51 524.27 331.49 524.16 323.62 525.68 322.97 522.27 322.97 522.27"/><polygon class="cls-8" points="338.07 519.26 349.14 516.32 350.02 519.65 343.02 521.51 344.01 525.24 350.61 523.48 351.49 526.78 344.89 528.53 346.02 532.79 353.39 530.84 354.28 534.16 342.83 537.2 338.07 519.26 338.07 519.26"/><path class="cls-8" d="m357.87,516.62c-.44.16-.8.31-1.08.45s-.5.26-.65.36l4.21,11.39c.19-.03.4-.08.65-.16s.5-.17.75-.26c1.81-.65,3.06-1.67,3.74-3.06s.65-3.13-.1-5.21c-.68-1.81-1.67-3-2.98-3.58-1.31-.58-2.83-.55-4.54.08h0Zm-1.53-2.87c1.64-.61,3.09-.97,4.34-1.09,1.26-.12,2.42-.01,3.47.31,1.16.33,2.2.94,3.12,1.84.92.89,1.67,2.11,2.25,3.64.6,1.67.85,3.18.75,4.55-.1,1.36-.44,2.55-1.04,3.58-.64,1.1-1.58,2.09-2.8,2.96-1.22.87-2.69,1.62-4.41,2.25-1.02.37-1.9.67-2.66.89-.76.22-1.39.39-1.9.5l-6.32-17.1c.69-.39,1.47-.78,2.36-1.17s1.83-.78,2.83-1.15h0Z"/><polygon class="cls-8" points="2.1 251.01 2.34 246.81 9.46 247.22 9.86 240.32 2.74 239.91 2.98 235.73 21.5 236.8 21.26 240.97 13.51 240.53 13.11 247.43 20.87 247.88 20.62 252.08 2.1 251.01 2.1 251.01"/><path class="cls-8" d="m3.67,230.86l.77-4.14,10.51,1.95c1.57.29,2.81.22,3.71-.2.9-.42,1.45-1.16,1.64-2.22.21-1.09-.03-1.99-.7-2.71-.67-.72-1.81-1.23-3.42-1.53l-10.51-1.95.76-4.11,10.23,1.9c2.81.54,4.77,1.6,5.89,3.18,1.12,1.58,1.46,3.57,1.01,5.97-.41,2.32-1.41,3.99-3,5.01-1.58,1.02-3.82,1.27-6.72.75l-10.18-1.89Z"/><path class="cls-8" d="m7.66,210.77l1.57-5.36h6.45c1.12.02,2.26.06,3.41.12,1.16.06,2.29.14,3.4.24l.02-.08c-.97-.56-1.97-1.15-2.99-1.76-1.02-.62-1.99-1.22-2.91-1.81l-5.36-3.64,1.54-5.26,18.09,4.25-1.16,3.94-6.89-1.74c-1.09-.28-2.27-.58-3.52-.92s-2.54-.69-3.84-1.07l-.02.08c1.07.62,2.15,1.28,3.24,1.97,1.09.7,2.12,1.37,3.07,2.03l6.31,4.21-.92,3.14-7.45-.12c-1.14-.02-2.36-.06-3.64-.13-1.28-.07-2.54-.17-3.78-.3l-.02.05c1.21.41,2.44.83,3.71,1.25,1.27.42,2.46.83,3.57,1.23l6.67,2.3-1.09,3.72-17.47-6.36h0Z"/><path class="cls-8" d="m19.9,183.29c.48.33.99.68,1.53,1.03.54.36,1.05.71,1.51,1.05l3.28,2.44,1.47-3.83-4.09-.33c-.58-.05-1.2-.11-1.85-.19-.65-.08-1.26-.15-1.83-.23l-.02.05Zm-3.85,1.26l1.98-5.14,19.39,1.29-1.62,4.21-4.96-.37-1.91,4.96,3.97,2.94-1.56,4.06-15.29-11.95h0Z"/><path class="cls-8" d="m21.26,171.4l2.05-4.45,7.79-.66c1.13-.09,2.3-.15,3.52-.16s2.39,0,3.53.07l.03-.07c-1.17-.39-2.34-.82-3.52-1.31-1.18-.49-2.4-1.02-3.66-1.6l-4.93-2.27,1.61-3.5,16.86,7.76-1.84,4-8.16.61c-1.15.09-2.35.15-3.61.19-1.26.04-2.49.04-3.69,0v.09c1.12.46,2.3.96,3.52,1.49,1.22.53,2.52,1.11,3.89,1.75l5.08,2.34-1.61,3.5-16.86-7.76h0Z"/><polygon class="cls-8" points="37.86 159.46 41.17 153.06 43.63 154.33 40.32 160.74 37.86 159.46 37.86 159.46"/><path class="cls-8" d="m38.13,137.46c.55-.95,1.09-1.72,1.63-2.32.54-.6.98-1.01,1.35-1.24l2.47,2.39c-.37.28-.76.64-1.17,1.09-.41.45-.8.99-1.17,1.63-.84,1.48-1.1,2.95-.76,4.41.34,1.46,1.4,2.72,3.17,3.77,1.64.92,3.18,1.19,4.62.82,1.44-.37,2.64-1.37,3.59-3,.32-.57.58-1.15.79-1.75s.35-1.13.41-1.59l3.16,1.07c-.02.44-.16,1.06-.43,1.85-.27.79-.68,1.69-1.23,2.68-1.07,1.85-2.31,3.2-3.73,4.06-1.41.85-2.9,1.25-4.47,1.2-1.57-.06-3.13-.52-4.67-1.4-1.83-1.06-3.16-2.35-3.99-3.85-.83-1.5-1.2-3.11-1.11-4.81.09-1.7.6-3.37,1.54-5.02h0Z"/><polygon class="cls-8" points="42.17 131.2 48.34 121.55 51.23 123.4 47.34 129.5 50.59 131.58 54.26 125.82 57.14 127.66 53.47 133.41 57.18 135.79 61.29 129.36 64.18 131.21 57.82 141.18 42.17 131.2 42.17 131.2"/><path class="cls-8" d="m50.38,118.44l2.87-3.97,7.77.86c1.13.13,2.29.3,3.48.52,1.19.22,2.34.47,3.45.75l.05-.07c-1.07-.61-2.13-1.26-3.2-1.97s-2.16-1.47-3.28-2.28l-4.39-3.18,2.26-3.12,15.03,10.88-2.58,3.57-8.12-.98c-1.14-.14-2.34-.31-3.58-.51-1.25-.21-2.45-.45-3.62-.72l-.03.08c1.02.67,2.08,1.39,3.18,2.15,1.1.76,2.26,1.58,3.48,2.47l4.53,3.28-2.26,3.12-15.03-10.88h0Z"/><polygon class="cls-8" points="61.05 103.85 70.15 92.87 72.86 95.11 69.63 99.02 81.21 108.61 78.52 111.85 66.94 102.26 63.76 106.09 61.05 103.85 61.05 103.85"/><path class="cls-8" d="m78.37,88.42c-.35.37-.62.67-.81.92-.19.24-.33.43-.41.56l3.71,3.54,1.14-1.2c.72-.77,1.11-1.53,1.17-2.28.06-.75-.21-1.41-.8-1.98-.62-.58-1.28-.83-1.96-.74-.68.09-1.36.49-2.05,1.18h0Zm-2.57-1.81c.94-1,1.84-1.77,2.69-2.33s1.68-.89,2.51-1.01c.7-.1,1.38-.03,2.05.21.67.24,1.31.65,1.93,1.24.84.85,1.31,1.78,1.42,2.79.11,1.01-.01,1.92-.38,2.73l.06.06c.63-.28,1.3-.36,2-.23.7.13,1.44.4,2.22.83.99.54,1.94,1.06,2.85,1.56.91.5,1.57.82,1.98.96l-2.96,3.11c-.3-.07-.79-.29-1.47-.63-.68-.35-1.53-.82-2.55-1.41-.98-.61-1.79-.9-2.42-.86-.63.04-1.23.37-1.81.98l-.88.92,5.28,5.04-2.87,3.01-13.25-12.64c.39-.57.89-1.23,1.5-1.97.61-.74,1.3-1.52,2.08-2.34h0Z"/><polygon class="cls-8" points="83.94 78.65 87.03 75.8 99.62 89.43 96.52 92.29 83.94 78.65 83.94 78.65"/><path class="cls-8" d="m97.46,66.75c.87-.67,1.66-1.18,2.38-1.53.72-.35,1.29-.57,1.72-.64l1.39,3.14c-.45.12-.95.31-1.49.57-.55.26-1.11.62-1.7,1.07-1.34,1.05-2.13,2.32-2.37,3.8-.24,1.48.27,3.04,1.51,4.69,1.17,1.47,2.5,2.3,3.97,2.51,1.47.2,2.96-.27,4.45-1.42.51-.4.97-.85,1.39-1.32.42-.48.75-.92.98-1.31l2.52,2.18c-.19.4-.55.92-1.1,1.55-.55.63-1.26,1.31-2.15,2.02-1.69,1.31-3.35,2.09-4.98,2.35-1.63.26-3.16.07-4.59-.58-1.43-.64-2.7-1.66-3.8-3.06-1.29-1.68-2.04-3.37-2.24-5.07-.2-1.71.06-3.33.79-4.87s1.83-2.9,3.32-4.07h0Z"/><polygon class="cls-8" points="469.37 88.62 472.11 91.81 458.05 103.92 455.3 100.72 469.37 88.62 469.37 88.62"/><path class="cls-8" d="m474.84,94.94l2.99,3.88-3.04,7.2c-.44,1.05-.94,2.11-1.49,3.19-.55,1.08-1.12,2.11-1.7,3.09l.05.07c.88-.85,1.82-1.69,2.8-2.51.98-.82,2.02-1.65,3.12-2.5l4.3-3.31,2.35,3.05-14.7,11.32-2.69-3.49,3.25-7.51c.45-1.06.96-2.15,1.51-3.29.55-1.14,1.12-2.22,1.71-3.26l-.07-.05c-.93.79-1.92,1.6-2.96,2.43-1.04.84-2.16,1.71-3.35,2.63l-4.43,3.41-2.35-3.05,14.7-11.32h0Z"/><polygon class="cls-8" points="485.72 109.25 493.7 121.07 490.78 123.04 487.95 118.84 475.49 127.26 473.13 123.77 485.59 115.36 482.8 111.23 485.72 109.25 485.72 109.25"/><path class="cls-8" d="m495.09,123.25l2.16,3.62-9.18,5.47c-1.37.82-2.25,1.69-2.65,2.6-.4.91-.32,1.83.23,2.76.56.95,1.33,1.48,2.31,1.57.98.1,2.17-.27,3.58-1.11l9.18-5.47,2.14,3.59-8.94,5.33c-2.46,1.45-4.64,1.95-6.52,1.5s-3.45-1.72-4.7-3.82c-1.22-2.02-1.57-3.93-1.06-5.74.52-1.81,2.04-3.48,4.56-5l8.89-5.3Z"/><polygon class="cls-8" points="504.66 139.69 506.66 143.39 490.33 152.21 488.33 148.5 504.66 139.69 504.66 139.69"/><polygon class="cls-8" points="507.89 145.58 514.2 158.37 511.05 159.93 508.8 155.38 495.32 162.04 493.46 158.27 506.94 151.61 504.73 147.14 507.89 145.58 507.89 145.58"/><polygon class="cls-8" points="515.18 160.66 516.9 164.5 499.96 172.08 498.24 168.24 515.18 160.66 515.18 160.66"/><path class="cls-8" d="m517.99,166.72l1.69,4.27-6.47,4.99c-.9.7-1.81,1.38-2.72,2.04-.91.66-1.86,1.31-2.85,1.94l.03.08c1.12-.19,2.25-.36,3.37-.5s2.24-.26,3.34-.35l8.24-.72,1.64,4.15-19.55,1.02-1.8-4.56,15.07-12.36h0Z"/><polygon class="cls-8" points="525.03 184.94 528.59 195.82 525.33 196.89 523.07 190.01 519.41 191.21 521.53 197.7 518.29 198.76 516.16 192.27 511.97 193.64 514.35 200.89 511.08 201.96 507.4 190.71 525.03 184.94 525.03 184.94"/><path class="cls-8" d="m43.93,379.48c.48.93.81,1.78,1.02,2.56.2.78.32,1.47.34,2.07l-3.43.73c0-.42-.07-.96-.2-1.63-.13-.67-.4-1.41-.81-2.22-.43-.8-.9-1.32-1.41-1.56-.51-.24-.98-.24-1.42-.01-.51.26-.8.72-.87,1.38-.07.66-.02,1.62.14,2.88.22,1.72.12,3.14-.31,4.26-.43,1.12-1.22,1.97-2.38,2.57-1.42.75-2.89.83-4.43.24s-2.91-1.99-4.13-4.23c-.49-.96-.85-1.91-1.09-2.85-.24-.94-.35-1.71-.34-2.33l3.47-.84c0,.65.08,1.39.25,2.21.17.82.46,1.64.87,2.45.45.85.96,1.42,1.5,1.69.55.28,1.1.27,1.64,0,.51-.25.82-.69.95-1.31.13-.62.1-1.51-.06-2.67-.25-1.63-.19-3.05.18-4.27s1.15-2.14,2.33-2.78c1.44-.73,2.91-.79,4.39-.18,1.49.61,2.75,1.89,3.8,3.83h0Z"/><polygon class="cls-8" points="47.23 386.3 53.06 396.16 50.1 397.91 46.41 391.67 43.09 393.64 46.56 399.52 43.63 401.25 40.15 395.37 36.36 397.61 40.24 404.18 37.27 405.93 31.25 395.74 47.23 386.3 47.23 386.3"/><path class="cls-8" d="m59.76,405.86c.6.92,1.04,1.75,1.34,2.5.29.75.46,1.34.5,1.77l-3.25,1.13c-.08-.46-.23-.97-.44-1.54-.21-.57-.52-1.16-.93-1.78-.94-1.42-2.14-2.31-3.6-2.67-1.46-.36-3.06.02-4.8,1.13-1.56,1.05-2.5,2.3-2.82,3.75-.32,1.45.03,2.97,1.06,4.55.36.54.76,1.04,1.21,1.5.44.46.85.82,1.23,1.08l-2.38,2.34c-.39-.22-.87-.62-1.46-1.22-.59-.6-1.2-1.37-1.84-2.31-1.17-1.79-1.82-3.51-1.95-5.16-.13-1.64.19-3.15.94-4.53.76-1.38,1.88-2.56,3.36-3.54,1.77-1.15,3.52-1.76,5.24-1.82,1.72-.06,3.31.33,4.79,1.18,1.48.85,2.74,2.06,3.79,3.63h0Z"/><path class="cls-8" d="m62.96,411.16l2.52,3.37-8.55,6.41c-1.28.96-2.06,1.92-2.36,2.86s-.13,1.85.52,2.72c.66.89,1.48,1.33,2.46,1.32s2.13-.5,3.44-1.48l8.55-6.41,2.51,3.35-8.33,6.24c-2.3,1.7-4.41,2.42-6.33,2.18-1.92-.25-3.61-1.35-5.07-3.31-1.43-1.88-1.98-3.74-1.65-5.6.32-1.85,1.66-3.67,4.01-5.45l8.29-6.21Z"/><path class="cls-8" d="m75.46,432.03c-.33-.39-.6-.69-.82-.9-.22-.22-.39-.37-.51-.46l-3.91,3.31,1.07,1.26c.69.8,1.4,1.27,2.14,1.4.74.14,1.42-.06,2.06-.58.65-.56.96-1.18.94-1.87-.02-.69-.34-1.41-.96-2.16h0Zm2.07-2.36c.89,1.05,1.57,2.02,2.03,2.92.46.9.71,1.77.73,2.61.02.71-.12,1.38-.43,2.02-.31.64-.78,1.24-1.44,1.79-.93.74-1.91,1.11-2.93,1.12-1.02,0-1.91-.22-2.68-.67l-.06.05c.21.66.21,1.33.01,2.01-.2.68-.55,1.39-1.06,2.12-.64.93-1.26,1.81-1.85,2.66-.59.85-.98,1.47-1.17,1.87l-2.77-3.28c.11-.29.37-.75.79-1.39.42-.64.98-1.44,1.68-2.39.71-.91,1.09-1.68,1.11-2.31.03-.63-.23-1.26-.78-1.9l-.82-.97-5.57,4.71-2.68-3.17,13.98-11.82c.53.45,1.13,1.02,1.8,1.7.67.69,1.37,1.46,2.1,2.32h0Z"/><polygon class="cls-8" points="83.96 437.34 91.83 445.66 89.33 448.02 84.35 442.76 81.55 445.41 86.24 450.37 83.76 452.71 79.07 447.75 75.87 450.78 81.11 456.32 78.61 458.69 70.48 450.09 83.96 437.34 83.96 437.34"/><path class="cls-8" d="m461.05,434.34l3.77-4.12,5.8,2.84c.99.51,2,1.05,3.01,1.61,1.01.56,1.99,1.13,2.94,1.71l.06-.06c-.62-.93-1.26-1.9-1.91-2.9-.65-1-1.25-1.97-1.82-2.9l-3.21-5.62,3.7-4.04,14.38,11.78-2.77,3.03-5.43-4.59c-.86-.73-1.78-1.52-2.76-2.37s-1.97-1.74-2.98-2.66l-.06.06c.69,1.03,1.37,2.09,2.04,3.2.68,1.11,1.3,2.16,1.87,3.18l3.82,6.55-2.21,2.42-6.64-3.39c-1.02-.52-2.09-1.09-3.21-1.72-1.12-.63-2.21-1.27-3.27-1.93l-.04.04c.9.9,1.83,1.82,2.78,2.76s1.84,1.83,2.66,2.67l4.98,5-2.62,2.86-12.89-13.4h0Z"/><path class="cls-8" d="m482.76,413.9c-.85,1.15-1.06,2.39-.62,3.72s1.38,2.56,2.82,3.71c1.46,1.13,2.88,1.73,4.26,1.8,1.37.07,2.51-.44,3.41-1.54.85-1.15,1.05-2.38.61-3.71-.44-1.32-1.39-2.55-2.83-3.69-.89-.69-1.81-1.19-2.75-1.49-.95-.3-1.85-.36-2.7-.18s-1.58.65-2.19,1.4h0Zm-2.56-2.14c1.19-1.49,2.52-2.49,3.99-3,1.47-.51,2.97-.6,4.5-.26s2.97,1.04,4.34,2.1c2.39,1.92,3.76,4.06,4.1,6.4.34,2.35-.33,4.61-2.01,6.8-1.15,1.44-2.45,2.42-3.9,2.93-1.45.51-2.95.6-4.49.27s-3.01-1.04-4.42-2.14c-1.47-1.16-2.55-2.48-3.24-3.96s-.96-3.01-.79-4.59c.17-1.58.81-3.1,1.93-4.55h0Z"/><path class="cls-8" d="m492.97,400.09c-.26.39-.47.72-.62.99-.15.28-.26.5-.32.67l10.03,6.85c.14-.13.28-.3.44-.51.15-.21.31-.43.45-.65,1.1-1.58,1.52-3.13,1.27-4.66-.25-1.53-1.29-2.92-3.1-4.19-1.6-1.08-3.1-1.48-4.51-1.19s-2.62,1.19-3.65,2.69h0Zm-2.91-1.45c.98-1.44,1.95-2.58,2.91-3.4.96-.83,1.96-1.41,3.01-1.76,1.14-.4,2.34-.51,3.61-.31s2.58.75,3.94,1.66c1.46,1.01,2.54,2.1,3.25,3.27.71,1.17,1.12,2.34,1.23,3.51.11,1.27-.08,2.61-.57,4.03-.49,1.42-1.25,2.88-2.28,4.39-.61.89-1.16,1.65-1.65,2.27-.49.62-.91,1.12-1.26,1.51l-15.06-10.27c.34-.71.75-1.49,1.24-2.32.49-.84,1.04-1.7,1.64-2.58h0Z"/><polygon class="cls-8" points="497.18 388.23 503.1 378.43 506.04 380.21 502.3 386.4 505.6 388.4 509.13 382.56 512.05 384.32 508.52 390.17 512.29 392.45 516.24 385.92 519.18 387.7 513.06 397.83 497.18 388.23 497.18 388.23"/><path class="cls-8" d="m509.85,372.29c-.24.45-.41.81-.53,1.1-.12.28-.2.5-.24.64l4.52,2.42.78-1.46c.49-.94.66-1.77.52-2.51-.15-.74-.58-1.3-1.3-1.69-.76-.4-1.45-.46-2.08-.18-.63.27-1.18.83-1.65,1.69h0Zm-2.96-1.05c.64-1.21,1.3-2.2,1.97-2.96.67-.76,1.38-1.31,2.15-1.64.65-.28,1.33-.4,2.03-.35.71.05,1.44.27,2.19.67,1.03.59,1.74,1.36,2.12,2.31s.5,1.86.37,2.73l.07.04c.54-.44,1.16-.69,1.87-.76.71-.07,1.49,0,2.36.21,1.1.25,2.15.5,3.16.74s1.73.37,2.17.4l-2.02,3.79c-.31,0-.83-.06-1.58-.22s-1.7-.38-2.84-.68c-1.11-.33-1.96-.39-2.56-.18-.6.21-1.09.68-1.48,1.43l-.6,1.12,6.44,3.44-1.96,3.66-16.15-8.63c.22-.66.53-1.42.92-2.3.39-.88.85-1.81,1.38-2.81h0Z"/><path class="cls-8" d="m511.63,362.57l2.02-4.46,7.79-.71c1.13-.1,2.3-.16,3.52-.18,1.21-.02,2.39,0,3.53.05l.03-.08c-1.17-.38-2.34-.81-3.53-1.29-1.18-.48-2.41-1-3.67-1.58l-4.94-2.24,1.59-3.51,16.9,7.66-1.82,4.01-8.16.66c-1.15.1-2.35.17-3.61.21-1.26.05-2.49.05-3.69.02v.09c1.12.45,2.31.94,3.53,1.47,1.23.53,2.53,1.1,3.9,1.72l5.09,2.31-1.59,3.51-16.9-7.66h0Z"/><path class="cls-6" d="m274.91,32.74c22.46-.12,45.29,3,67.9,9.67l-8.29,28.11c-98.93-29.2-202.99,19.38-245.25,111.27l-4.06,10.11-18.14-30.86,6.17-11.86c42.05-72.01,119.33-116.01,201.68-116.45h0Z"/><path class="cls-6" d="m276.35,32.75v69.57l95.65-50.06c-31.88-14.14-72.23-19.8-95.65-19.51h0Z"/><path class="cls-5" d="m513.17,269.08c.12,22.44-2.99,45.26-9.66,67.85l-28.08-8.29c29.17-98.86-19.36-202.85-111.14-245.08l-10.1-4.06,30.82-18.13,11.84,6.16c71.93,42.02,115.87,119.25,116.32,201.54h0Z"/><path class="cls-5" d="m513.16,270.48h-69.38l49.92,95.65c14.1-31.88,19.74-72.23,19.46-95.65h0Z"/><path class="cls-4" d="m278.11,507.66c-22.44.12-45.26-3-67.85-9.67l8.29-28.11c98.86,29.2,202.85-19.38,245.08-111.27l4.06-10.11,18.13,30.86-6.16,11.86c-42.02,72.01-119.25,116.01-201.54,116.45h0Z"/><path class="cls-4" d="m276.71,507.66v-69.57l-95.65,50.06c31.88,14.14,72.23,19.8,95.65,19.51h0Z"/><path class="cls-3" d="m36.59,271.32c-.12-22.44,2.99-45.26,9.66-67.85l28.08,8.29c-29.17,98.86,19.36,202.85,111.14,245.08l10.1,4.06-30.82,18.13-11.84-6.16c-71.93-42.02-115.87-119.25-116.32-201.54h0Z"/><path class="cls-3" d="m36.6,269.93h69.38l-49.92-95.65c-14.1,31.88-19.74,72.23-19.46,95.65h0Z"/><path class="cls-7" d="m134.16,270.02c0-77.77,63.04-140.81,140.81-140.81s140.81,63.04,140.81,140.81-63.04,140.81-140.81,140.81-140.81-63.04-140.81-140.81h0Z"/><g class="cls-10"><path class="cls-2" d="m412.57,269.93c0,76.04-61.64,137.69-137.69,137.69s-137.69-61.64-137.69-137.69,61.64-137.69,137.69-137.69,137.69,61.64,137.69,137.69h0Z"/><g class="cls-9"><g class="cls-14"><g><path class="cls-1" d="m226.76,248.66c-.13-3.46-.26-7.66-.26-11.85h-.13c-.9,3.68-2.1,7.78-3.21,11.16l-3.51,11.25h-5.09l-3.08-11.16c-.94-3.38-1.92-7.48-2.61-11.25h-.09c-.17,3.89-.3,8.34-.51,11.93l-.51,10.95h-6.03l1.84-28.83h8.68l2.82,9.62c.9,3.34,1.8,6.93,2.44,10.31h.13c.81-3.34,1.8-7.14,2.74-10.35l3.08-9.58h8.51l1.58,28.83h-6.37l-.43-11.03Z"/><path class="cls-1" d="m259.14,249c0,7.66-5.43,11.16-11.04,11.16-6.12,0-10.82-4.02-10.82-10.78s4.45-11.08,11.16-11.08,10.69,4.41,10.69,10.69Zm-15.14.21c0,3.59,1.5,6.29,4.28,6.29,2.52,0,4.15-2.52,4.15-6.29,0-3.12-1.2-6.29-4.15-6.29-3.12,0-4.28,3.21-4.28,6.29Z"/><path class="cls-1" d="m283.52,229.32v24.12c0,2.35.09,4.83.17,6.24h-5.77l-.3-3.08h-.08c-1.33,2.35-3.85,3.55-6.54,3.55-4.96,0-8.94-4.23-8.94-10.74-.04-7.06,4.36-11.12,9.37-11.12,2.57,0,4.58.9,5.52,2.35h.08v-11.33h6.5Zm-6.5,18.31c0-.34-.04-.81-.08-1.15-.39-1.75-1.8-3.21-3.81-3.21-2.95,0-4.49,2.65-4.49,5.95,0,3.55,1.75,5.77,4.45,5.77,1.88,0,3.38-1.28,3.76-3.12.13-.47.17-.94.17-1.5v-2.74Z"/><path class="cls-1" d="m293.74,251.31c.21,2.69,2.87,3.98,5.9,3.98,2.22,0,4.02-.3,5.77-.86l.86,4.41c-2.14.86-4.75,1.28-7.57,1.28-7.1,0-11.16-4.11-11.16-10.65,0-5.3,3.29-11.16,10.56-11.16,6.76,0,9.32,5.26,9.32,10.44,0,1.11-.13,2.1-.21,2.57h-13.47Zm7.66-4.45c0-1.58-.68-4.23-3.68-4.23-2.74,0-3.85,2.48-4.02,4.23h7.7Z"/><path class="cls-1" d="m311.32,245.66c0-3.08-.09-5.09-.17-6.89h5.6l.21,3.85h.17c1.07-3.04,3.64-4.32,5.65-4.32.6,0,.9,0,1.37.09v6.12c-.47-.09-1.03-.17-1.75-.17-2.4,0-4.02,1.28-4.45,3.29-.08.43-.13.94-.13,1.45v10.61h-6.5v-14.03Z"/><path class="cls-1" d="m327.62,245.45c0-2.61-.09-4.83-.17-6.67h5.65l.3,2.87h.13c.86-1.33,2.99-3.34,6.46-3.34,4.28,0,7.48,2.82,7.48,8.98v12.4h-6.5v-11.59c0-2.69-.94-4.53-3.29-4.53-1.8,0-2.87,1.24-3.29,2.44-.17.38-.26,1.03-.26,1.63v12.06h-6.5v-14.24Z"/></g></g><g class="cls-11"><g class="cls-15"><g><path class="cls-1" d="m181.52,310.73l-6.84-28.83h6.97l2.18,11.89c.64,3.42,1.24,7.14,1.71,10.05h.09c.47-3.12,1.15-6.59,1.88-10.14l2.44-11.8h6.93l2.31,12.15c.64,3.38,1.11,6.46,1.54,9.67h.09c.43-3.21,1.07-6.59,1.67-10.01l2.35-11.8h6.63l-7.44,28.83h-7.06l-2.44-12.4c-.56-2.91-1.03-5.6-1.37-8.9h-.08c-.51,3.25-.98,5.99-1.67,8.9l-2.74,12.4h-7.14Z"/><path class="cls-1" d="m233.49,300.04c0,7.66-5.43,11.16-11.03,11.16-6.12,0-10.82-4.02-10.82-10.78s4.45-11.08,11.16-11.08,10.69,4.41,10.69,10.69Zm-15.14.21c0,3.59,1.5,6.29,4.28,6.29,2.52,0,4.15-2.52,4.15-6.29,0-3.12-1.2-6.29-4.15-6.29-3.12,0-4.28,3.21-4.28,6.29Z"/><path class="cls-1" d="m237.47,296.7c0-3.08-.09-5.09-.17-6.89h5.6l.21,3.85h.17c1.07-3.04,3.64-4.32,5.65-4.32.6,0,.9,0,1.37.08v6.12c-.47-.08-1.03-.17-1.75-.17-2.4,0-4.02,1.28-4.45,3.29-.08.43-.13.94-.13,1.45v10.61h-6.5v-14.03Z"/><path class="cls-1" d="m260.14,298.62h.08c.47-.85.98-1.71,1.5-2.52l4.23-6.29h7.83l-7.49,8.47,8.55,12.45h-8l-5.05-8.6-1.67,2.05v6.54h-6.5v-30.37h6.5v18.26Z"/><path class="cls-1" d="m277.12,296.83c0-2.74-.09-5.09-.17-7.01h5.65l.3,2.91h.09c1.54-2.22,3.93-3.38,6.97-3.38,4.58,0,8.68,3.98,8.68,10.65,0,7.61-4.83,11.21-9.49,11.21-2.52,0-4.49-1.03-5.43-2.4h-.08v10.39h-6.5v-22.37Zm6.5,4.92c0,.51.04.98.13,1.37.43,1.75,1.92,3.08,3.81,3.08,2.82,0,4.49-2.35,4.49-5.9,0-3.34-1.5-5.86-4.41-5.86-1.84,0-3.46,1.37-3.89,3.29-.08.34-.13.77-.13,1.15v2.87Z"/><path class="cls-1" d="m302.66,280.36h6.5v30.37h-6.5v-30.37Z"/><path class="cls-1" d="m326.31,310.73l-.38-2.1h-.13c-1.37,1.67-3.51,2.57-5.99,2.57-4.23,0-6.76-3.08-6.76-6.42,0-5.43,4.88-8.04,12.28-8v-.3c0-1.11-.6-2.7-3.81-2.7-2.14,0-4.41.73-5.77,1.58l-1.2-4.19c1.45-.81,4.32-1.84,8.13-1.84,6.97,0,9.2,4.11,9.2,9.02v7.27c0,2.01.08,3.93.3,5.09h-5.86Zm-.77-9.88c-3.42-.04-6.07.77-6.07,3.29,0,1.67,1.11,2.48,2.57,2.48,1.63,0,2.95-1.07,3.38-2.4.09-.34.13-.73.13-1.11v-2.27Z"/><path class="cls-1" d="m352.7,310.21c-1.15.51-3.34.94-5.82.94-6.76,0-11.08-4.11-11.08-10.69,0-6.12,4.19-11.12,11.98-11.12,1.71,0,3.59.3,4.96.81l-1.03,4.83c-.77-.34-1.92-.64-3.64-.64-3.42,0-5.65,2.44-5.6,5.86,0,3.85,2.57,5.86,5.73,5.86,1.54,0,2.74-.26,3.72-.64l.77,4.79Z"/><path class="cls-1" d="m360.75,302.35c.21,2.69,2.87,3.98,5.9,3.98,2.22,0,4.02-.3,5.77-.86l.86,4.41c-2.14.86-4.75,1.28-7.57,1.28-7.1,0-11.16-4.11-11.16-10.65,0-5.3,3.29-11.16,10.56-11.16,6.76,0,9.32,5.26,9.32,10.44,0,1.11-.13,2.1-.21,2.57h-13.47Zm7.66-4.45c0-1.58-.68-4.23-3.68-4.23-2.74,0-3.85,2.48-4.02,4.23h7.7Z"/></g></g></g></g></g></svg>